C:\Users\Nicos\Documents\OpenSimProjects\SprintingProject\Study1\PredictiveResults\IC_pred_Sprinting_optimum_28-October-2023__13-58-45_p02_maxVel_01___IKTD_Minus_6_GRF.mot
version=1
nRows=5
nColumns=127
inDegrees=yes
endheader
time	ground_force_vx	ground_force_vy	ground_force_vz	ground_force_px	ground_force_py	ground_force_pz	ground_torque_x	ground_torque_y	ground_torque_z	1_ground_force_vx	1_ground_force_vy	1_ground_force_vz	1_ground_force_px	1_ground_force_py	1_ground_force_pz	1_ground_torque_x	1_ground_torque_y	1_ground_torque_z	2_ground_force_vx	2_ground_force_vy	2_ground_force_vz	2_ground_force_px	2_ground_force_py	2_ground_force_pz	2_ground_torque_x	2_ground_torque_y	2_ground_torque_z	3_ground_force_vx	3_ground_force_vy	3_ground_force_vz	3_ground_force_px	3_ground_force_py	3_ground_force_pz	3_ground_torque_x	3_ground_torque_y	3_ground_torque_z	4_ground_force_vx	4_ground_force_vy	4_ground_force_vz	4_ground_force_px	4_ground_force_py	4_ground_force_pz	4_ground_torque_x	4_ground_torque_y	4_ground_torque_z	5_ground_force_vx	5_ground_force_vy	5_ground_force_vz	5_ground_force_px	5_ground_force_py	5_ground_force_pz	5_ground_torque_x	5_ground_torque_y	5_ground_torque_z	6_ground_force_vx	6_ground_force_vy	6_ground_force_vz	6_ground_force_px	6_ground_force_py	6_ground_force_pz	6_ground_torque_x	6_ground_torque_y	6_ground_torque_z	7_ground_force_vx	7_ground_force_vy	7_ground_force_vz	7_ground_force_px	7_ground_force_py	7_ground_force_pz	7_ground_torque_x	7_ground_torque_y	7_ground_torque_z	8_ground_force_vx	8_ground_force_vy	8_ground_force_vz	8_ground_force_px	8_ground_force_py	8_ground_force_pz	8_ground_torque_x	8_ground_torque_y	8_ground_torque_z	9_ground_force_vx	9_ground_force_vy	9_ground_force_vz	9_ground_force_px	9_ground_force_py	9_ground_force_pz	9_ground_torque_x	9_ground_torque_y	9_ground_torque_z	10_ground_force_vx	10_ground_force_vy	10_ground_force_vz	10_ground_force_px	10_ground_force_py	10_ground_force_pz	10_ground_torque_x	10_ground_torque_y	10_ground_torque_z	11_ground_force_vx	11_ground_force_vy	11_ground_force_vz	11_ground_force_px	11_ground_force_py	11_ground_force_pz	11_ground_torque_x	11_ground_torque_y	11_ground_torque_z	12_ground_force_vx	12_ground_force_vy	12_ground_force_vz	12_ground_force_px	12_ground_force_py	12_ground_force_pz	12_ground_torque_x	12_ground_torque_y	12_ground_torque_z	13_ground_force_vx	13_ground_force_vy	13_ground_force_vz	13_ground_force_px	13_ground_force_py	13_ground_force_pz	13_ground_torque_x	13_ground_torque_y	13_ground_torque_z
0.056000	-73.349671	39.406563	13.625793	0.358601	-0.001771	0.445052	0.000000	0.000000	0.000000	-0.806343	0.440072	0.151529	0.315454	0.004835	0.465813	0.000000	0.000000	0.000000	-0.016323	0.009469	0.004294	0.288822	0.008753	0.459722	0.000000	0.000000	0.000000	-0.250224	0.142983	0.065995	0.291692	0.006024	0.437848	0.000000	0.000000	0.000000	-0.000000	0.000000	0.000000	0.205142	0.020113	0.489826	0.000000	0.000000	0.000000	-0.001573	0.000912	0.000435	0.259573	0.010987	0.454769	0.000000	0.000000	0.000000	-0.000000	0.000000	0.000000	0.142577	0.019923	0.434957	0.000000	0.000000	0.000000	-0.000000	0.000000	0.000000	-0.433471	0.202666	0.126121	0.000000	0.000000	0.000000	-0.000000	0.000000	0.000000	-0.420059	0.225510	0.111977	0.000000	0.000000	0.000000	-0.000000	0.000000	0.000000	-0.413532	0.238074	0.121038	0.000000	0.000000	0.000000	-0.000000	0.000000	0.000000	-0.421228	0.235280	0.141679	0.000000	0.000000	0.000000	-0.000000	0.000000	0.000000	-0.392843	0.281858	0.102912	0.000000	0.000000	0.000000	-0.000000	0.000000	0.000000	-0.411488	0.252419	0.129567	0.000000	0.000000	0.000000	-0.000000	0.000000	0.000000	-0.403310	0.309797	0.163683	0.000000	0.000000	0.000000
0.056648	-108.722964	58.978745	17.930185	0.361835	-0.002536	0.444535	0.000000	0.000000	0.000000	-1.884873	1.039693	0.320818	0.318576	0.003858	0.465329	0.000000	0.000000	0.000000	-0.047849	0.027925	0.011522	0.291796	0.007689	0.459165	0.000000	0.000000	0.000000	-0.618590	0.355431	0.149038	0.294734	0.005057	0.437253	0.000000	0.000000	0.000000	-0.000000	0.000000	0.000000	0.207962	0.018755	0.489279	0.000000	0.000000	0.000000	-0.004997	0.002917	0.001277	0.262539	0.009885	0.454188	0.000000	0.000000	0.000000	-0.000000	0.000000	0.000000	0.145513	0.018665	0.434277	0.000000	0.000000	0.000000	-0.000000	0.000000	0.000000	-0.421474	0.202405	0.125551	0.000000	0.000000	0.000000	-0.000000	0.000000	0.000000	-0.408345	0.225295	0.111444	0.000000	0.000000	0.000000	-0.000000	0.000000	0.000000	-0.402107	0.237935	0.120626	0.000000	0.000000	0.000000	-0.000000	0.000000	0.000000	-0.409828	0.235116	0.141244	0.000000	0.000000	0.000000	-0.000000	0.000000	0.000000	-0.381825	0.281777	0.102600	0.000000	0.000000	0.000000	-0.000000	0.000000	0.000000	-0.400234	0.252283	0.129176	0.000000	0.000000	0.000000	-0.000000	0.000000	0.000000	-0.392740	0.309673	0.163374	0.000000	0.000000	0.000000
0.058696	-231.666739	131.482428	15.221484	0.371729	-0.004775	0.443525	0.000000	0.000000	0.000000	-12.799545	7.413198	1.060426	0.328100	0.000970	0.464301	0.000000	0.000000	0.000000	-0.965624	0.588682	0.148057	0.300891	0.004508	0.457859	0.000000	0.000000	0.000000	-6.461725	3.865063	0.979601	0.304064	0.002132	0.435863	0.000000	0.000000	0.000000	-0.000028	0.000018	0.000006	0.216529	0.014649	0.487802	0.000000	0.000000	0.000000	-0.142647	0.086939	0.024968	0.271611	0.006546	0.452755	0.000000	0.000000	0.000000	-0.000028	0.000017	0.000007	0.154490	0.014700	0.432338	0.000000	0.000000	0.000000	-0.000000	0.000000	0.000000	-0.383648	0.201591	0.123829	0.000000	0.000000	0.000000	-0.000000	0.000000	0.000000	-0.371363	0.224615	0.109835	0.000000	0.000000	0.000000	-0.000000	0.000000	0.000000	-0.365974	0.237456	0.119338	0.000000	0.000000	0.000000	-0.000000	0.000000	0.000000	-0.373769	0.234557	0.139883	0.000000	0.000000	0.000000	-0.000000	0.000000	0.000000	-0.346965	0.281471	0.101612	0.000000	0.000000	0.000000	-0.000000	0.000000	0.000000	-0.364634	0.251809	0.127947	0.000000	0.000000	0.000000	-0.000000	0.000000	0.000000	-0.359271	0.309224	0.162380	0.000000	0.000000	0.000000
0.060181	-315.712677	187.499659	-4.800940	0.378502	-0.006235	0.443391	0.000000	0.000000	0.000000	-37.693650	22.896380	0.345355	0.334588	-0.000942	0.464049	0.000000	0.000000	0.000000	-5.233597	3.366482	0.481232	0.307066	0.002345	0.457328	0.000000	0.000000	0.000000	-18.279430	11.498227	1.630690	0.310429	0.000110	0.435301	0.000000	0.000000	0.000000	-0.000558	0.000375	0.000099	0.222293	0.011837	0.486960	0.000000	0.000000	0.000000	-1.163206	0.747398	0.140032	0.277773	0.004245	0.452084	0.000000	0.000000	0.000000	-0.000586	0.000375	0.000137	0.160602	0.011845	0.431108	0.000000	0.000000	0.000000	-0.000000	0.000000	0.000000	-0.356315	0.201010	0.122646	0.000000	0.000000	0.000000	-0.000000	0.000000	0.000000	-0.344597	0.224120	0.108734	0.000000	0.000000	0.000000	-0.000000	0.000000	0.000000	-0.339758	0.237069	0.118417	0.000000	0.000000	0.000000	-0.000000	0.000000	0.000000	-0.347603	0.234115	0.138911	0.000000	0.000000	0.000000	-0.000000	0.000000	0.000000	-0.321660	0.281201	0.100893	0.000000	0.000000	0.000000	-0.000000	0.000000	0.000000	-0.338796	0.251425	0.127064	0.000000	0.000000	0.000000	-0.000000	0.000000	0.000000	-0.334948	0.308847	0.161649	0.000000	0.000000	0.000000
0.060829	-348.862096	212.155684	-16.274805	0.381319	-0.006840	0.443487	0.000000	0.000000	0.000000	-61.971558	38.581300	-1.214619	0.337278	-0.001739	0.464067	0.000000	0.000000	0.000000	-8.926123	5.904718	0.620328	0.309617	0.001430	0.457201	0.000000	0.000000	0.000000	-31.435691	20.304863	2.088115	0.313069	-0.000755	0.435168	0.000000	0.000000	0.000000	-0.001914	0.001325	0.000315	0.224660	0.010650	0.486648	0.000000	0.000000	0.000000	-2.581387	1.705041	0.260501	0.280321	0.003265	0.451883	0.000000	0.000000	0.000000	-0.002141	0.001408	0.000482	0.163138	0.010607	0.430612	0.000000	0.000000	0.000000	-0.000000	0.000000	0.000000	-0.344401	0.200757	0.122144	0.000000	0.000000	0.000000	-0.000000	0.000000	0.000000	-0.332918	0.223902	0.108270	0.000000	0.000000	0.000000	-0.000000	0.000000	0.000000	-0.328303	0.236890	0.118018	0.000000	0.000000	0.000000	-0.000000	0.000000	0.000000	-0.336169	0.233911	0.138491	0.000000	0.000000	0.000000	-0.000000	0.000000	0.000000	-0.310599	0.281070	0.100580	0.000000	0.000000	0.000000	-0.000000	0.000000	0.000000	-0.327505	0.251246	0.126681	0.000000	0.000000	0.000000	-0.000000	0.000000	0.000000	-0.324311	0.308668	0.161329	0.000000	0.000000	0.000000
